<svg width="161" height="27" viewBox="0 0 161 27" fill="none" xmlns="http://www.w3.org/2000/svg">
<path d="M7.80409 9.94398C7.98409 9.69199 8.20009 9.43999 8.41609 9.22399C9.60409 8.03599 11.1521 7.38799 12.8081 7.38799C14.4641 7.38799 16.0121 8.03599 17.2001 9.22399C17.7761 9.79999 18.2441 10.484 18.5681 11.24L18.7121 11.528H25.0481L24.9041 10.916C24.2201 7.85599 22.4201 5.19199 19.8281 3.42799C17.7761 1.98799 15.3641 1.23199 12.8441 1.23199C9.20809 1.23199 5.75209 2.81598 3.41209 5.58798L3.12408 5.94798L7.5161 10.34L7.80409 9.94398ZM14.1761 15.632L16.4081 18.728C15.3641 19.448 14.1401 19.844 12.8441 19.844C11.1881 19.844 9.64009 19.196 8.45209 18.008C7.26409 16.82 6.61609 15.272 6.61609 13.616C6.61609 13.292 6.6521 12.968 6.6881 12.644L6.72409 12.392L1.97209 7.63998L1.6841 8.28798C0.892097 9.94398 0.496094 11.744 0.496094 13.616C0.496094 16.928 1.7921 20.024 4.1321 22.364C6.4721 24.704 9.5681 26 12.8801 26C15.0761 26 17.2361 25.424 19.1081 24.308V25.964H25.2281V15.704L14.1761 15.632ZM28.7961 26H35.9601L42.9441 14.516L39.3801 8.61198L28.7961 26ZM44.0961 0.835985L40.5321 6.70399L50.7201 23.588L52.1961 26.036H59.3601L44.0961 0.835985ZM62.9681 26H69.0881V17.9L62.9681 11.78V26ZM86.7281 1.26798L75.3161 12.68L63.9041 1.26798H62.9321V8.97198L69.0521 15.092L75.2801 21.356L81.5081 15.092V26H87.6281V1.26798H86.7281ZM91.3041 1.26798V4.32798L97.4241 10.448V1.26798H91.3041ZM91.3041 26H97.4241V13.256L91.3041 7.13598V26ZM101.007 26H107.127V17.9L101.007 11.78V26ZM117.819 6.55998L117.675 6.70399V17L102.123 1.44798L101.979 1.30398H101.007V9.00798L107.127 15.128L111.051 19.052L117.783 25.784L118.035 26.036H123.795V0.583984L117.819 6.55998ZM134.753 9.94398C134.933 9.69199 135.149 9.43999 135.365 9.22399C136.553 8.03599 138.101 7.38799 139.757 7.38799C141.413 7.38799 142.961 8.03599 144.149 9.22399C144.725 9.79999 145.193 10.484 145.517 11.24L145.661 11.528H151.997L151.853 10.916C151.169 7.85599 149.369 5.19199 146.777 3.42799C144.725 1.98799 142.313 1.23199 139.793 1.23199C136.157 1.23199 132.701 2.81598 130.361 5.58798L130.073 5.94798L134.465 10.34L134.753 9.94398ZM141.125 15.632L143.357 18.728C142.313 19.448 141.089 19.844 139.793 19.844C138.137 19.844 136.589 19.196 135.401 18.008C134.213 16.82 133.565 15.272 133.565 13.616C133.565 13.292 133.601 12.968 133.637 12.644L133.673 12.392L128.921 7.63998L128.633 8.28798C127.841 9.94398 127.445 11.744 127.445 13.616C127.445 16.928 128.741 20.024 131.081 22.364C133.421 24.704 136.517 26 139.829 26C142.025 26 144.185 25.424 146.057 24.308V25.964H152.177V15.704L141.125 15.632ZM155.745 1.01598V16.136L160.893 21.284V1.01598H155.745ZM155.745 26H160.893V25.496L155.745 20.348V26Z" fill="#05C2DF"/>
</svg>
